<?xml version="1.0" encoding="UTF-8"?>
<svg version="1.1" xmlns="http://www.w3.org/2000/svg" width="612" height="407">
<path d="M0 0 C0.66 0 1.32 0 2 0 C1.58910567 3.28715464 0.6455282 5.84822862 -0.875 8.75 C-2.30307229 11.4892561 -3.41663232 14.10780598 -4.3125 17.0625 C-6.48407517 23.99202078 -9.85965951 30.46981252 -13 37 C-11.76765625 36.95359375 -10.5353125 36.9071875 -9.265625 36.859375 C2.77346022 36.54271722 14.29083534 36.90902945 24 45 C24 45.66 24 46.32 24 47 C24.59683594 47.24492187 25.19367188 47.48984375 25.80859375 47.7421875 C31.21045575 50.84272148 34.5548455 58.09463852 36.4765625 63.87109375 C38.86110185 73.5694068 38.20543002 84.08066496 38 94 C37.97486328 95.37285156 37.97486328 95.37285156 37.94921875 96.7734375 C37.58538472 102.69873457 35.17075087 107.0508206 32 112 C31.34 112 30.68 112 30 112 C29.62875 112.9590625 29.62875 112.9590625 29.25 113.9375 C28 116 28 116 25.875 116.75 C25.25625 116.8325 24.6375 116.915 24 117 C24 117.66 24 118.32 24 119 C22.515 119.495 22.515 119.495 21 120 C22.03125 120.391875 23.0625 120.78375 24.125 121.1875 C28.08229497 122.88002942 30.88386755 125.03587401 34 128 C34 128.66 34 129.32 34 130 C34.66 130 35.32 130 36 130 C36.67413211 131.91405367 37.3390332 133.83136026 38 135.75 C38.37125 136.81734375 38.7425 137.8846875 39.125 138.984375 C40 142 40 142 40 146 C39.34 146 38.68 146 38 146 C37.90074219 146.71929687 37.80148437 147.43859375 37.69921875 148.1796875 C36.90573372 151.3802249 35.65568711 153.39887338 33.8125 156.125 C30.77456984 160.74389382 28.0733376 165.44146639 25.46484375 170.3125 C22.65524098 175.46718455 19.55475835 180.44922458 16.5 185.4609375 C12.81426243 191.5462438 9.36528626 197.73246442 6 204 C5.3556711 205.19542159 4.71113095 206.39072933 4.06640625 207.5859375 C2.37509234 210.72260972 0.68682394 213.86091048 -1 217 C-1.66 217 -2.32 217 -3 217 C-3.268125 218.134375 -3.53625 219.26875 -3.8125 220.4375 C-4.204375 221.613125 -4.59625 222.78875 -5 224 C-5.99 224.33 -6.98 224.66 -8 225 C-8.09410156 225.71027344 -8.18820312 226.42054688 -8.28515625 227.15234375 C-9.12374305 230.49294364 -10.52602421 232.70522122 -12.4375 235.5625 C-14.4868462 238.64721526 -16.4282198 241.643183 -18 245 C-18.66 244.67 -19.32 244.34 -20 244 C-11.86249996 223.16338975 -11.86249996 223.16338975 -7.91015625 215.875 C-6.96643302 213.93084913 -6.49355584 212.09713643 -6 210 C-7.26787102 209.99453156 -7.26787102 209.99453156 -8.56135559 209.98895264 C-16.52209095 209.95110599 -24.48241523 209.89429167 -32.4428606 209.81609726 C-36.53557262 209.77656613 -40.62806767 209.74440563 -44.72094727 209.72900391 C-48.66991588 209.71387395 -52.61828825 209.679495 -56.56699181 209.63169098 C-58.07443755 209.61683908 -59.58196841 209.6089568 -61.08948708 209.60811615 C-63.19938553 209.60575594 -65.30762337 209.57875835 -67.41723633 209.54589844 C-68.61858719 209.53701599 -69.81993805 209.52813354 -71.05769348 209.51898193 C-74 209 -74 209 -75.88418579 207.38970947 C-77.36680268 204.21442851 -77.40283422 201.72392458 -77.43579102 198.21875 C-77.44586685 197.5449379 -77.45594269 196.87112579 -77.46632385 196.17689514 C-77.49479306 193.95109379 -77.50068167 191.7259721 -77.50390625 189.5 C-77.51355537 187.94262418 -77.52364844 186.38525106 -77.53416443 184.82788086 C-77.55212832 181.55950637 -77.55768595 178.29136959 -77.5559082 175.02294922 C-77.55560498 170.86468493 -77.59638757 166.70797666 -77.64822483 162.55007935 C-77.68185064 159.32921579 -77.68765762 156.1087163 -77.68607903 152.88769531 C-77.68958626 151.35687955 -77.70266853 149.82605096 -77.72607613 148.29541016 C-77.90071889 135.68487934 -75.06868579 126.91900223 -67 117 C-65.998394 115.31667265 -65.04006198 113.60689697 -64.125 111.875 C-63.35736328 110.43640625 -63.35736328 110.43640625 -62.57421875 108.96875 C-61.79498047 107.49921875 -61.79498047 107.49921875 -61 106 C-59.98186286 104.12353458 -58.96108358 102.24850003 -57.9375 100.375 C-57.44121094 99.46621094 -56.94492187 98.55742187 -56.43359375 97.62109375 C-55.96050781 96.75613281 -55.48742187 95.89117187 -55 95 C-54.57847656 94.22785156 -54.15695312 93.45570313 -53.72265625 92.66015625 C-50.62084908 87.02140774 -47.34125118 81.49986019 -44 76 C-43.01 76.33 -42.02 76.66 -41 77 C-41 86.57 -41 96.14 -41 106 C-36.28462891 105.94877381 -31.57246017 105.88560493 -26.8581543 105.79248047 C-25.25702406 105.76438197 -23.65575798 105.74311241 -22.05444336 105.72900391 C-19.74262504 105.7074183 -17.43242086 105.66069442 -15.12109375 105.609375 C-14.0597245 105.60753204 -14.0597245 105.60753204 -12.97691345 105.60565186 C-7.51952803 105.44743984 -4.40375176 104.00833294 0 101 C1.36839363 98.26321275 1.21634818 95.95735576 1.31640625 92.8984375 C1.35830078 91.68671875 1.40019531 90.475 1.44335938 89.2265625 C1.48267578 87.95554687 1.52199219 86.68453125 1.5625 85.375 C1.62727539 83.456875 1.62727539 83.456875 1.69335938 81.5 C1.79969886 78.33344652 1.90172833 75.16681247 2 72 C0.02 71.01 0.02 71.01 -2 70 C-2 69.34 -2 68.68 -2 68 C-19.325 67.505 -19.325 67.505 -37 67 C-36.1117804 62.55890198 -35.38069037 60.60466178 -33.0625 56.9375 C-31.22580443 54.00871517 -29.49174262 51.12040847 -28 48 C-27.34 48 -26.68 48 -26 48 C-25.88914062 47.26910156 -25.77828125 46.53820312 -25.6640625 45.78515625 C-24.96587346 42.85686927 -23.97837661 40.97117801 -22.375 38.4375 C-21.83875 37.57253906 -21.3025 36.70757812 -20.75 35.81640625 C-20.1725 34.88699219 -19.595 33.95757812 -19 33 C-15.08453275 26.44328005 -11.30980666 19.88439785 -8 13 C-7.34 13 -6.68 13 -6 13 C-5.88785156 12.43796875 -5.77570313 11.8759375 -5.66015625 11.296875 C-4.90942661 8.68486892 -3.78832624 6.60528678 -2.4375 4.25 C-1.98246094 3.45078125 -1.52742188 2.6515625 -1.05859375 1.828125 C-0.53458984 0.92320313 -0.53458984 0.92320313 0 0 Z M-41 135 C-41 149.52 -41 164.04 -41 179 C-35.01875 179.061875 -29.0375 179.12375 -22.875 179.1875 C-20.99796387 179.21481201 -19.12092773 179.24212402 -17.18701172 179.27026367 C-15.68457684 179.27903275 -14.18213479 179.28667569 -12.6796875 179.29296875 C-11.91148682 179.30831665 -11.14328613 179.32366455 -10.35180664 179.33947754 C-5.49360045 179.3418245 -2.20881743 178.68802403 2 176 C6.88456305 169.95128276 6.60545919 163.98222615 6.5 156.4375 C6.51546875 155.32697266 6.5309375 154.21644531 6.546875 153.07226562 C6.50943707 145.25241881 5.55319741 141.55319741 0 136 C-4.08851476 134.65931068 -8.2281458 134.87437122 -12.484375 134.90234375 C-13.56936279 134.90385437 -13.56936279 134.90385437 -14.67626953 134.90539551 C-17.36752924 134.91061113 -20.05876628 134.92457238 -22.75 134.9375 C-28.7725 134.958125 -34.795 134.97875 -41 135 Z " fill="#F7F7F7" transform="translate(327,81)"/>
<path d="M0 0 C0.7843895 -0.00637985 1.56877899 -0.0127597 2.37693787 -0.01933289 C3.21555862 -0.02044571 4.05417938 -0.02155853 4.91821289 -0.02270508 C5.78853653 -0.02603348 6.65886017 -0.02936188 7.55555725 -0.03279114 C9.39380364 -0.03784706 11.23205917 -0.04019988 13.0703125 -0.04003906 C15.8771887 -0.04222567 18.68367181 -0.06039576 21.49047852 -0.0793457 C23.27888863 -0.0822799 25.06730061 -0.08426452 26.85571289 -0.08520508 C28.11060768 -0.09598335 28.11060768 -0.09598335 29.39085388 -0.10697937 C37.78779576 -0.07417567 37.78779576 -0.07417567 40.95336914 2.14526367 C42.23536783 4.88785544 43.14060986 7.26554181 43.95336914 10.14526367 C44.15819916 10.86151917 44.36302917 11.57777466 44.57406616 12.31573486 C45.20532666 14.62936582 45.79317759 16.95062604 46.37133789 19.27807617 C46.58960236 20.13997559 46.80786682 21.001875 47.03274536 21.88989258 C47.49833763 23.7299208 47.96195297 25.57045023 48.42373657 27.41143799 C49.64062554 32.26252631 50.87155675 37.11004958 52.10180664 41.95776367 C52.34608902 42.92167023 52.5903714 43.88557678 52.84205627 44.87869263 C54.60158297 51.80586717 56.41755631 58.71552904 58.28076172 65.61547852 C59.24609902 69.19691577 60.18831015 72.78388882 61.12915039 76.37182617 C62.34078096 80.96375434 63.66329828 85.50449103 65.05883789 90.04370117 C70.21984106 107.56482198 70.21984106 107.56482198 66.64282227 114.55151367 C64.94044084 117.24227946 62.9613826 119.67787798 60.95336914 122.14526367 C59.90503303 124.12035643 58.88907594 126.11438879 57.95336914 128.14526367 C57.29336914 128.14526367 56.63336914 128.14526367 55.95336914 128.14526367 C55.68927246 129.01530029 55.42517578 129.88533691 55.15307617 130.78173828 C53.96556529 134.11107028 52.53262705 136.91000386 50.75805664 139.96166992 C50.12826904 141.04955811 49.49848145 142.13744629 48.84960938 143.25830078 C48.1826001 144.39662354 47.51559082 145.53494629 46.82836914 146.70776367 C46.14193973 147.88800168 45.45582412 149.06842225 44.77001953 150.24902344 C40.81397328 157.04387544 36.77902835 163.779399 32.59790039 170.43823242 C30.29012364 174.23701933 28.22182828 178.15148232 26.17993164 182.09838867 C24.95336914 184.14526367 24.95336914 184.14526367 22.95336914 185.14526367 C23.4649025 179.13474665 25.36219431 174.55445019 27.95336914 169.14526367 C31.02254085 162.56088147 33.92312517 155.91854994 36.70336914 149.20776367 C37.00927979 148.47364258 37.31519043 147.73952148 37.63037109 146.9831543 C38.97753434 143.70731304 40.09216011 140.5900998 40.95336914 137.14526367 C24.12336914 137.14526367 7.29336914 137.14526367 -10.04663086 137.14526367 C-10.70663086 141.43526367 -11.36663086 145.72526367 -12.04663086 150.14526367 C-12.70663086 152.12526367 -13.36663086 154.10526367 -14.04663086 156.14526367 C-14.40489396 157.66041802 -14.74076571 159.18116888 -15.04663086 160.70776367 C-16.8148712 168.91350402 -16.8148712 168.91350402 -20.04663086 172.14526367 C-23.08764648 172.38818359 -23.08764648 172.38818359 -26.95288086 172.37573242 C-27.63338501 172.3752742 -28.31388916 172.37481598 -29.01501465 172.37434387 C-30.45411929 172.37132219 -31.89322069 172.36343834 -33.33227539 172.35107422 C-35.53795937 172.33283538 -37.74322315 172.33056442 -39.94897461 172.33081055 C-50.75155712 172.29280054 -50.75155712 172.29280054 -53.04663086 171.14526367 C-53.61840876 164.03442578 -51.51541535 157.6946256 -49.60913086 150.89526367 C-48.86814791 148.19843771 -48.1335566 145.49987657 -47.39819336 142.80151367 C-47.20609787 142.10004211 -47.01400238 141.39857056 -46.81608582 140.67584229 C-44.81367555 133.34496679 -42.92884816 125.98506935 -41.05181885 118.62127686 C-30.74588144 78.20972506 -30.74588144 78.20972506 -25.81616211 62.77026367 C-24.7952421 59.28773451 -24.1279936 55.77482815 -23.47631836 52.20776367 C-22.95657199 49.71298108 -21.99204269 47.50879326 -21.04663086 45.14526367 C-20.50063361 42.62429199 -20.02513649 40.0939107 -19.54663086 37.55932617 C-18.94644954 34.66157573 -17.99973234 31.94499926 -17.04663086 29.14526367 C-16.69893192 27.64852837 -16.36671254 26.14814718 -16.04663086 24.64526367 C-15.27749536 21.03994104 -14.21288946 17.64403946 -13.04663086 14.14526367 C-12.72515947 12.60544274 -12.41327384 11.06360077 -12.10913086 9.52026367 C-11.36483848 6.09305689 -10.70359867 3.59784934 -8.04663086 1.14526367 C-5.32468099 0.28439392 -2.84476692 0.01579255 0 0 Z M14.95336914 37.14526367 C12.58143501 44.74918458 10.55829863 52.41540593 8.64086914 60.14526367 C8.18901245 61.95740356 8.18901245 61.95740356 7.72802734 63.80615234 C5.34718498 73.41506478 3.08827636 83.04967527 0.90722656 92.70581055 C-0.27113896 97.90308832 -1.51315248 103.0408685 -3.04663086 108.14526367 C0.66851953 109.00401644 4.10842639 109.27388334 7.91821289 109.27807617 C9.04807617 109.27936523 10.17793945 109.2806543 11.34204102 109.28198242 C12.5131543 109.27811523 13.68426758 109.27424805 14.89086914 109.27026367 C16.64173828 109.27606445 16.64173828 109.27606445 18.42797852 109.28198242 C19.55913086 109.28069336 20.6902832 109.2794043 21.85571289 109.27807617 C23.39473267 109.27638428 23.39473267 109.27638428 24.96484375 109.2746582 C28.03236441 109.1418434 30.93821017 108.71136138 33.95336914 108.14526367 C33.5014682 105.58147903 33.04209668 103.01941245 32.57836914 100.45776367 C32.45204102 99.7365332 32.32571289 99.01530273 32.19555664 98.2722168 C31.47438671 94.32381142 30.51568016 90.85885217 28.95336914 87.14526367 C28.4574729 85.23797044 28.00217892 83.31985865 27.57836914 81.39526367 C27.3218457 80.2531543 27.06532227 79.11104492 26.80102539 77.93432617 C26.52129883 76.68393555 26.24157227 75.43354492 25.95336914 74.14526367 C22.02059483 55.31314625 22.02059483 55.31314625 15.95336914 37.14526367 C15.62336914 37.14526367 15.29336914 37.14526367 14.95336914 37.14526367 Z " fill="#F9F9F8" transform="translate(192.046630859375,80.854736328125)"/>
<path d="M0 0 C0.99 0 1.98 0 3 0 C3.01213028 1.69342781 3.01213028 1.69342781 3.02450562 3.42106628 C3.10198382 14.05938205 3.18972749 24.69757018 3.28752708 35.33571911 C3.33747698 40.80492299 3.38380728 46.27410768 3.421875 51.7434082 C3.4587441 57.02138879 3.50510875 62.29920831 3.55806351 67.57705116 C3.57659876 69.59084562 3.59170993 71.60467459 3.60334396 73.61852074 C3.6202211 76.43880082 3.64926002 79.25871271 3.68115234 82.07885742 C3.68331253 82.91179825 3.68547272 83.74473907 3.68769836 84.60292053 C3.74827612 88.79516333 3.90072201 92.24906042 6 96 C10.21666788 98.78039146 13.57739392 99.37661588 18.5703125 99.36328125 C20.40916016 99.36231445 20.40916016 99.36231445 22.28515625 99.36132812 C23.55230469 99.34521484 24.81945312 99.32910156 26.125 99.3125 C27.39988281 99.31572266 28.67476563 99.31894531 29.98828125 99.32226562 C37.2883107 99.42195771 37.2883107 99.42195771 44 97 C44.99 97 45.98 97 47 97 C47.144375 96.21625 47.28875 95.4325 47.4375 94.625 C48 92 48 92 49 90 C49.13842659 88.67317399 49.2250296 87.34065474 49.28125 86.0078125 C49.31863281 85.22019531 49.35601562 84.43257813 49.39453125 83.62109375 C49.44673828 82.38552734 49.44673828 82.38552734 49.5 81.125 C49.56920865 79.50244176 49.64200553 77.88003177 49.71875 76.2578125 C49.74904297 75.5373877 49.77933594 74.81696289 49.81054688 74.07470703 C50.00330538 71.96380265 50.43258805 70.03935206 51 68 C55.52065428 67.950623 60.04115217 67.91429177 64.56201172 67.89013672 C66.10045098 67.88006882 67.63887107 67.86641354 69.17724609 67.84912109 C71.38644133 67.82490683 73.59538395 67.81352509 75.8046875 67.8046875 C76.49432587 67.79436493 77.18396423 67.78404236 77.89450073 67.77340698 C79.59800906 67.77300522 81.30085943 67.87808974 83 68 C86.17908155 71.17908155 85.32524677 74.77985742 85.37890625 79.11987305 C85.37761719 80.33843994 85.37632812 81.55700684 85.375 82.8125 C85.37628906 84.03815674 85.37757813 85.26381348 85.37890625 86.52661133 C85.27978893 94.98931575 84.5884822 102.23029524 81 110 C80.34 110 79.68 110 79 110 C78.87753906 110.58910156 78.75507813 111.17820312 78.62890625 111.78515625 C77.18990154 116.85295546 73.80049812 120.74170425 69.5 123.6875 C56.40970033 130.74850831 43.79365901 130.5669739 29.24194336 130.41162109 C25.67858448 130.37490814 22.11626359 130.37060409 18.55273438 130.37109375 C16.26822024 130.36126754 13.98371308 130.34961271 11.69921875 130.3359375 C10.64385422 130.33371185 9.58848969 130.33148621 8.50114441 130.32919312 C-4.18653262 130.16706132 -13.65293365 126.86079729 -22.95703125 118.1171875 C-29.10723272 111.74355614 -30.82313846 105.65807372 -32.421875 96.9765625 C-32.84505001 94.08617018 -32.84505001 94.08617018 -34 92 C-35.18492622 73.05444462 -35.4461238 55.32144673 -23.36865234 39.7734375 C-21.45614188 37.29529337 -19.83214197 34.66099375 -18.1875 32 C-17.64609375 31.16597656 -17.1046875 30.33195312 -16.546875 29.47265625 C-14.35595378 25.97050187 -12.4226035 22.34544773 -10.4765625 18.703125 C-8.99124602 15.98397419 -7.4216095 13.33500036 -5.8125 10.6875 C-3.68861969 7.19229539 -1.75038764 3.6952628 0 0 Z " fill="#F9F9F9" transform="translate(388,196)"/>
<path d="M0 0 C0.66 0 1.32 0 2 0 C1.35721783 3.89954515 0.18004219 7.24656822 -1.375 10.875 C-1.82617188 11.93589844 -2.27734375 12.99679688 -2.7421875 14.08984375 C-3.65745435 16.20746425 -4.57734713 18.32308717 -5.5 20.4375 C-7.80230906 25.90548403 -9.89050487 31.4552796 -12 37 C-10.72125 36.97679687 -9.4425 36.95359375 -8.125 36.9296875 C-6.41667255 36.91091467 -4.70833873 36.89271611 -3 36.875 C-2.16082031 36.85824219 -1.32164062 36.84148437 -0.45703125 36.82421875 C6.55274739 36.76987938 12.89060802 37.59437398 19.1875 40.9375 C20.10595703 41.41509766 20.10595703 41.41509766 21.04296875 41.90234375 C21.68878906 42.26457031 22.33460938 42.62679687 23 43 C23.81984375 43.43699219 24.6396875 43.87398437 25.484375 44.32421875 C32.57514908 49.04773129 37.16352004 57.6449113 39.3828125 65.70703125 C41.15551831 75.60254625 41.15885424 87.03093209 40 97 C38 99 38 99 34.92724609 99.22705078 C33.63898926 99.21657715 32.35073242 99.20610352 31.0234375 99.1953125 C30.33819 99.1924826 29.6529425 99.18965271 28.94692993 99.18673706 C26.75610973 99.17553281 24.56569684 99.15042859 22.375 99.125 C20.8906309 99.11497048 19.4062554 99.10584458 17.921875 99.09765625 C14.28111739 99.07559294 10.64059844 99.04106176 7 99 C5.41253477 96.17915688 4.74870172 94.1130786 4.69140625 90.8828125 C4.66626953 90.11066406 4.64113281 89.33851563 4.61523438 88.54296875 C4.58025019 86.93887918 4.54896313 85.33470445 4.52148438 83.73046875 C4.35399003 78.82002486 3.91354829 75.14453791 1 71 C-3.31757126 68.37892346 -6.51528729 67.62960242 -11.53515625 67.671875 C-12.75654297 67.67703125 -13.97792969 67.6821875 -15.23632812 67.6875 C-16.49896484 67.708125 -17.76160156 67.72875 -19.0625 67.75 C-20.96225586 67.75773437 -20.96225586 67.75773437 -22.90039062 67.765625 C-30.50789364 67.81844127 -30.50789364 67.81844127 -38 69 C-37.43380074 64.89689369 -36.12213415 62.29101519 -33.8125 58.875 C-30.21701667 53.40106007 -27.07087062 47.78046235 -24 42 C-20.44049936 35.29976351 -16.70874826 28.83527328 -12.515625 22.5078125 C-11.03843674 20.06359893 -9.97891987 17.67763377 -9 15 C-8.34 15 -7.68 15 -7 15 C-6.773125 14.01 -6.54625 13.02 -6.3125 12 C-5.05508624 7.57643649 -2.89775915 3.57576049 0 0 Z " fill="#F8F8F8" transform="translate(433,118)"/>
<path d="M0 0 C0.99 0 1.98 0 3 0 C3.33 31.35 3.66 62.7 4 95 C0.55685446 90.40913927 0.55827355 87.64462769 0.56762695 82.19238281 C0.5574353 81.30422379 0.54724365 80.41606476 0.53674316 79.50099182 C0.50657355 76.56830571 0.49734112 73.63594602 0.48828125 70.703125 C0.47143752 68.66858837 0.45328769 66.63406216 0.43388367 64.59954834 C0.38634445 59.24679828 0.35656038 53.89409048 0.33044434 48.54119873 C0.30065866 43.07816214 0.25412148 37.61527125 0.20898438 32.15234375 C0.12290659 21.43497198 0.05558114 10.71757027 0 0 Z " fill="#A6A5A6" transform="translate(388,196)"/>
<path d="M0 0 C0.66 0 1.32 0 2 0 C1.35721783 3.89954515 0.18004219 7.24656822 -1.375 10.875 C-2.04982422 12.45861328 -2.04982422 12.45861328 -2.73828125 14.07421875 C-3.15464844 15.03972656 -3.57101562 16.00523437 -4 17 C-4.28230469 17.66644531 -4.56460937 18.33289063 -4.85546875 19.01953125 C-6.84223365 23.70654016 -8.92375151 28.3521544 -11 33 C-11.99 32.34 -12.98 31.68 -14 31 C-14.99 32.32 -15.98 33.64 -17 35 C-17.66 34.67 -18.32 34.34 -19 34 C-16.58912074 29.04430374 -13.9573095 24.22077253 -11.3046875 19.390625 C-10.51285311 17.93971888 -9.73920637 16.47841273 -9 15 C-8.34 15 -7.68 15 -7 15 C-6.773125 14.01 -6.54625 13.02 -6.3125 12 C-5.05508624 7.57643649 -2.89775915 3.57576049 0 0 Z " fill="#B2AEAE" transform="translate(433,118)"/>
<path d="M0 0 C0.33 1.32 0.66 2.64 1 4 C2.98 3.34 4.96 2.68 7 2 C3.88085899 8.53692319 0.6600127 14.74748179 -3.484375 20.69140625 C-5.82389971 24.25496065 -7.74778392 28.02796887 -9.703125 31.8125 C-11 34 -11 34 -13 35 C-12.48841594 28.98888732 -10.58880689 24.40983233 -8 19 C-5.0958425 12.73595566 -2.33072457 6.50149487 0 0 Z " fill="#CFCCCB" transform="translate(228,231)"/>
<path d="M0 0 C2.0625 0.4375 2.0625 0.4375 4 1 C3.34 1 2.68 1 2 1 C1.731875 2.134375 1.46375 3.26875 1.1875 4.4375 C0.795625 5.613125 0.40375 6.78875 0 8 C-0.99 8.33 -1.98 8.66 -3 9 C-3.09410156 9.71027344 -3.18820312 10.42054688 -3.28515625 11.15234375 C-4.12374305 14.49294364 -5.52602421 16.70522122 -7.4375 19.5625 C-9.4868462 22.64721526 -11.4282198 25.643183 -13 29 C-13.66 28.67 -14.32 28.34 -15 28 C-13.73063207 24.81191452 -12.45923816 21.62464065 -11.1875 18.4375 C-10.83107422 17.54224609 -10.47464844 16.64699219 -10.10742188 15.72460938 C-8.13582889 10.78658291 -6.12032161 5.87607083 -4 1 C-3.01 1 -2.02 1 -1 1 C-0.67 0.67 -0.34 0.34 0 0 Z " fill="#DEDBD8" transform="translate(322,297)"/>
<path d="M0 0 C0.66 0 1.32 0 2 0 C1.484554 4.12356797 -0.05148124 7.18352411 -1.953125 10.80078125 C-3.4014935 13.84343597 -4.34721216 16.9848511 -5.2890625 20.21484375 C-6 22 -6 22 -8 23 C-8 21.68 -8 20.36 -8 19 C-9.98 21.97 -11.96 24.94 -14 28 C-14.33 27.34 -14.66 26.68 -15 26 C-14.07421875 23.9765625 -14.07421875 23.9765625 -12.6875 21.625 C-11.03043318 18.78567061 -9.43810357 15.95722705 -8 13 C-7.34 13 -6.68 13 -6 13 C-5.88785156 12.43796875 -5.77570313 11.8759375 -5.66015625 11.296875 C-4.90942661 8.68486892 -3.78832624 6.60528678 -2.4375 4.25 C-1.98246094 3.45078125 -1.52742188 2.6515625 -1.05859375 1.828125 C-0.70925781 1.22484375 -0.35992187 0.6215625 0 0 Z " fill="#C1BBBA" transform="translate(327,81)"/>
<path d="M0 0 C0.33 1.32 0.66 2.64 1 4 C1.66 4 2.32 4 3 4 C1.47146065 8.27186525 -0.71509481 11.99326863 -3.125 15.8125 C-3.49753906 16.40998047 -3.87007812 17.00746094 -4.25390625 17.62304688 C-5.1657048 19.08426251 -6.08235976 20.54244585 -7 22 C-8.18960605 18.58957132 -7.85398723 16.91628018 -6.34765625 13.671875 C-5.98349609 12.87265625 -5.61933594 12.0734375 -5.24414062 11.25 C-4.85419922 10.425 -4.46425781 9.6 -4.0625 8.75 C-3.67642578 7.90953125 -3.29035156 7.0690625 -2.89257812 6.203125 C-1.93865013 4.13039258 -0.97423909 2.06324373 0 0 Z " fill="#C7C3C1" transform="translate(223,244)"/>
<path d="M0 0 C1.761539 3.523078 0.06296504 7.35293028 -1 11 C-2.625 14.5625 -2.625 14.5625 -4 17 C-4.66 15.68 -5.32 14.36 -6 13 C-7.32 14.32 -8.64 15.64 -10 17 C-10.33 16.34 -10.66 15.68 -11 15 C-9.74975589 12.56202398 -8.5100704 10.50592349 -6.55859375 8.5703125 C-4.92378315 6.92321009 -3.63974029 5.21368203 -2.3125 3.3125 C-1.87550781 2.68988281 -1.43851562 2.06726563 -0.98828125 1.42578125 C-0.66214844 0.95527344 -0.33601563 0.48476562 0 0 Z " fill="#C9C6C6" transform="translate(319,99)"/>
<path d="M0 0 C-0.08733576 1.60517097 -0.19552224 3.20921662 -0.3125 4.8125 C-0.37050781 5.70582031 -0.42851562 6.59914062 -0.48828125 7.51953125 C-1.06313581 10.30604 -1.8206856 11.24135754 -4 13 C-4.66 12.34 -5.32 11.68 -6 11 C-6.99 12.32 -7.98 13.64 -9 15 C-9.66 14.67 -10.32 14.34 -11 14 C-4.1627907 0 -4.1627907 0 0 0 Z " fill="#D2CFD0" transform="translate(425,138)"/>
<path d="M0 0 C0.33 1.32 0.66 2.64 1 4 C14.86 4.495 14.86 4.495 29 5 C29 5.33 29 5.66 29 6 C28.20827393 6.02505615 27.41654785 6.0501123 26.60083008 6.07592773 C23.00456637 6.19215729 19.4085472 6.31476176 15.8125 6.4375 C13.94368164 6.49647461 13.94368164 6.49647461 12.03710938 6.55664062 C10.83505859 6.59853516 9.63300781 6.64042969 8.39453125 6.68359375 C7.28956299 6.72025146 6.18459473 6.75690918 5.04614258 6.79467773 C2.27407028 6.98152656 -0.29542873 7.38162366 -3 8 C-2.45276317 4.62537285 -1.9451 2.91765 0 0 Z " fill="#AAA8A6" transform="translate(398,179)"/>
<path d="M0 0 C0.33 0.99 0.66 1.98 1 3 C0.01 4.485 0.01 4.485 -1 6 C6.92 6.33 14.84 6.66 23 7 C23 7.33 23 7.66 23 8 C14.42 8 5.84 8 -3 8 C-2 3 -2 3 0 0 Z " fill="#8E8C8C" transform="translate(293,140)"/>
<path d="M0 0 C2.0625 0.4375 2.0625 0.4375 4 1 C3.34 1 2.68 1 2 1 C1.34 3.31 0.68 5.62 0 8 C-1.32 8 -2.64 8 -4 8 C-4.625 6.1875 -4.625 6.1875 -5 4 C-4.34 3.01 -3.68 2.02 -3 1 C-2.34 1 -1.68 1 -1 1 C-0.67 0.67 -0.34 0.34 0 0 Z " fill="#CDCBCA" transform="translate(322,297)"/>
<path d="M0 0 C0.66 0.33 1.32 0.66 2 1 C2.4140625 3.28515625 2.4140625 3.28515625 2.625 6.0625 C2.69976562 6.98160156 2.77453125 7.90070313 2.8515625 8.84765625 C2.90054688 9.55792969 2.94953125 10.26820313 3 11 C3.66 11 4.32 11 5 11 C5 12.65 5 14.3 5 16 C2.03 16 -0.94 16 -4 16 C-3.67 15.34 -3.34 14.68 -3 14 C-1.02 14 0.96 14 3 14 C2.690625 13.360625 2.38125 12.72125 2.0625 12.0625 C0.68064597 8.07950896 0.3463457 4.18349151 0 0 Z " fill="#C2B8B8" transform="translate(223,175)"/>
<path d="M0 0 C0.99 0.33 1.98 0.66 3 1 C3 9.91 3 18.82 3 28 C2.67 28 2.34 28 2 28 C1.67 19.75 1.34 11.5 1 3 C0.34 2.67 -0.32 2.34 -1 2 C-0.67 1.34 -0.34 0.68 0 0 Z " fill="#525152" transform="translate(283,157)"/>
<path d="M0 0 C0.99 0 1.98 0 3 0 C2.67 9.24 2.34 18.48 2 28 C1.67 28 1.34 28 1 28 C0.67 18.76 0.34 9.52 0 0 Z " fill="#DAD8D8" transform="translate(388,196)"/>
<path d="M0 0 C0.99 0.33 1.98 0.66 3 1 C3.6875 3.3125 3.6875 3.3125 4 6 C2.5625 7.8125 2.5625 7.8125 1 9 C0.67 8.01 0.34 7.02 0 6 C-0.99 6.66 -1.98 7.32 -3 8 C-1.125 2.25 -1.125 2.25 0 0 Z " fill="#BCB8B7" transform="translate(424,133)"/>
<path d="M0 0 C0.33 1.32 0.66 2.64 1 4 C0.34 4 -0.32 4 -1 4 C-0.87625 4.721875 -0.7525 5.44375 -0.625 6.1875 C-1.06001831 9.45013736 -1.55561151 9.8041996 -4 11.8125 C-4.99 12.534375 -5.98 13.25625 -7 14 C-5.39285137 8.68404685 -3.06215122 4.59322683 0 0 Z " fill="#A8A5A3" transform="translate(279,164)"/>
<path d="M0 0 C2.31377205 3.47065807 2.88984473 6.67040155 3.625 10.6875 C3.7590625 11.38939453 3.893125 12.09128906 4.03125 12.81445312 C4.3602717 14.54181706 4.68095312 16.27076591 5 18 C2.33545144 16.66772572 1.7079881 14.86568737 0.59765625 12.1875 C-0.49762788 8.17861689 -0.22371746 4.11805842 0 0 Z " fill="#C3B4B3" transform="translate(252,156)"/>
<path d="M0 0 C0.66 0 1.32 0 2 0 C1.39009109 3.55780196 0.4216319 6.6828589 -1 10 C-1.33 9.34 -1.66 8.68 -2 8 C-2.66 7.67 -3.32 7.34 -4 7 C-2.68 4.69 -1.36 2.38 0 0 Z " fill="#999698" transform="translate(327,81)"/>
<path d="M0 0 C0.33 0.66 0.66 1.32 1 2 C1.66 2.33 2.32 2.66 3 3 C1.35 5.64 -0.3 8.28 -2 11 C-2.66 10.67 -3.32 10.34 -4 10 C-2.68 6.7 -1.36 3.4 0 0 Z " fill="#787474" transform="translate(311,315)"/>
<path d="M0 0 C1.4606285 2.64738916 2 3.89448334 2 7 C1.01 8.485 1.01 8.485 0 10 C-0.66 10 -1.32 10 -2 10 C-1.54177532 6.53058454 -1.10868317 3.32604951 0 0 Z " fill="#B2B2B0" transform="translate(314,307)"/>
<path d="M0 0 C0.99 0.33 1.98 0.66 3 1 C1.35 3.64 -0.3 6.28 -2 9 C-3 5 -3 5 -1.5625 2.25 C-1.046875 1.5075 -0.53125 0.765 0 0 Z " fill="#777675" transform="translate(218,257)"/>
<path d="M0 0 C0.0825 0.61875 0.165 1.2375 0.25 1.875 C0.81258459 4.18437567 0.81258459 4.18437567 3.0625 5.25 C3.701875 5.4975 4.34125 5.745 5 6 C2.36 6.66 -0.28 7.32 -3 8 C-2.45276317 4.62537285 -1.9451 2.91765 0 0 Z " fill="#C1BDBE" transform="translate(398,179)"/>
<path d="M0 0 C1 2 1 2 0.44140625 3.9453125 C0.15136719 4.66460937 -0.13867188 5.38390625 -0.4375 6.125 C-0.72496094 6.84945312 -1.01242187 7.57390625 -1.30859375 8.3203125 C-1.53675781 8.87460938 -1.76492188 9.42890625 -2 10 C-2.99 9.67 -3.98 9.34 -5 9 C-3.7508258 5.54074837 -2.32472205 2.85306797 0 0 Z " fill="#FCF9F8" transform="translate(319,99)"/>
<path d="M0 0 C0.33 0 0.66 0 1 0 C1.29341888 5.67276511 1.00559652 8.99067246 -2 14 C-3.21065165 10.36804504 -2.62784815 8.93468371 -1.5625 5.3125 C-1.27503906 4.31863281 -0.98757812 3.32476562 -0.69140625 2.30078125 C-0.46324219 1.54152344 -0.23507813 0.78226563 0 0 Z " fill="#BCB9B9" transform="translate(163,154)"/>
<path d="M0 0 C0.81720493 3.26881973 1.11073543 5.46999069 1.0625 8.75 C1.05347656 9.54921875 1.04445312 10.3484375 1.03515625 11.171875 C1.01775391 12.07679687 1.01775391 12.07679687 1 13 C0.01 13 -0.98 13 -2 13 C-1.34 8.71 -0.68 4.42 0 0 Z " fill="#E0DFDE" transform="translate(179,95)"/>
<path d="M0 0 C0.33 0.66 0.66 1.32 1 2 C1.66 2.33 2.32 2.66 3 3 C1.35 4.65 -0.3 6.3 -2 8 C-2.66 7.67 -3.32 7.34 -4 7 C-2.68 4.69 -1.36 2.38 0 0 Z " fill="#D8D5D7" transform="translate(268,184)"/>
<path d="M0 0 C0.66 0 1.32 0 2 0 C2.33 2.97 2.66 5.94 3 9 C2.01 8.01 1.02 7.02 0 6 C-0.33 6 -0.66 6 -1 6 C-1.042721 4.33388095 -1.04063832 2.66617115 -1 1 C-0.67 0.67 -0.34 0.34 0 0 Z " fill="#ADA4A4" transform="translate(207,114)"/>
<path d="M0 0 C0.33 0.66 0.66 1.32 1 2 C-0.25 5.5625 -0.25 5.5625 -2 9 C-2.99 9.33 -3.98 9.66 -5 10 C-3.66511872 6.40608886 -2.03977277 3.24509304 0 0 Z " fill="#B4B1B0" transform="translate(387,198)"/>
<path d="" fill="#000000" transform="translate(0,0)"/>
<path d="" fill="#000000" transform="translate(0,0)"/>
<path d="" fill="#000000" transform="translate(0,0)"/>
<path d="" fill="#000000" transform="translate(0,0)"/>
<path d="" fill="#000000" transform="translate(0,0)"/>
<path d="" fill="#000000" transform="translate(0,0)"/>
<path d="" fill="#000000" transform="translate(0,0)"/>
<path d="" fill="#000000" transform="translate(0,0)"/>
<path d="" fill="#000000" transform="translate(0,0)"/>
<path d="" fill="#000000" transform="translate(0,0)"/>
<path d="" fill="#000000" transform="translate(0,0)"/>
<path d="" fill="#000000" transform="translate(0,0)"/>
<path d="" fill="#000000" transform="translate(0,0)"/>
<path d="" fill="#000000" transform="translate(0,0)"/>
<path d="" fill="#000000" transform="translate(0,0)"/>
<path d="" fill="#000000" transform="translate(0,0)"/>
<path d="" fill="#000000" transform="translate(0,0)"/>
<path d="" fill="#000000" transform="translate(0,0)"/>
<path d="" fill="#000000" transform="translate(0,0)"/>
<path d="" fill="#000000" transform="translate(0,0)"/>
<path d="" fill="#000000" transform="translate(0,0)"/>
<path d="" fill="#000000" transform="translate(0,0)"/>
<path d="" fill="#000000" transform="translate(0,0)"/>
<path d="" fill="#000000" transform="translate(0,0)"/>
<path d="" fill="#000000" transform="translate(0,0)"/>
<path d="" fill="#000000" transform="translate(0,0)"/>
<path d="" fill="#000000" transform="translate(0,0)"/>
<path d="" fill="#000000" transform="translate(0,0)"/>
<path d="" fill="#000000" transform="translate(0,0)"/>
<path d="" fill="#000000" transform="translate(0,0)"/>
<path d="" fill="#000000" transform="translate(0,0)"/>
<path d="" fill="#000000" transform="translate(0,0)"/>
<path d="" fill="#000000" transform="translate(0,0)"/>
<path d="" fill="#000000" transform="translate(0,0)"/>
<path d="" fill="#000000" transform="translate(0,0)"/>
<path d="" fill="#000000" transform="translate(0,0)"/>
<path d="" fill="#000000" transform="translate(0,0)"/>
<path d="" fill="#000000" transform="translate(0,0)"/>
<path d="" fill="#000000" transform="translate(0,0)"/>
<path d="" fill="#000000" transform="translate(0,0)"/>
<path d="" fill="#000000" transform="translate(0,0)"/>
<path d="" fill="#000000" transform="translate(0,0)"/>
<path d="" fill="#000000" transform="translate(0,0)"/>
<path d="" fill="#000000" transform="translate(0,0)"/>
<path d="" fill="#000000" transform="translate(0,0)"/>
<path d="" fill="#000000" transform="translate(0,0)"/>
<path d="" fill="#000000" transform="translate(0,0)"/>
<path d="" fill="#000000" transform="translate(0,0)"/>
<path d="" fill="#000000" transform="translate(0,0)"/>
<path d="" fill="#000000" transform="translate(0,0)"/>
<path d="" fill="#000000" transform="translate(0,0)"/>
<path d="" fill="#000000" transform="translate(0,0)"/>
<path d="" fill="#000000" transform="translate(0,0)"/>
<path d="" fill="#000000" transform="translate(0,0)"/>
<path d="" fill="#000000" transform="translate(0,0)"/>
<path d="" fill="#000000" transform="translate(0,0)"/>
<path d="" fill="#000000" transform="translate(0,0)"/>
<path d="" fill="#000000" transform="translate(0,0)"/>
<path d="" fill="#000000" transform="translate(0,0)"/>
<path d="" fill="#000000" transform="translate(0,0)"/>
<path d="" fill="#000000" transform="translate(0,0)"/>
<path d="" fill="#000000" transform="translate(0,0)"/>
<path d="" fill="#000000" transform="translate(0,0)"/>
<path d="" fill="#000000" transform="translate(0,0)"/>
<path d="" fill="#000000" transform="translate(0,0)"/>
<path d="" fill="#000000" transform="translate(0,0)"/>
<path d="" fill="#000000" transform="translate(0,0)"/>
<path d="" fill="#000000" transform="translate(0,0)"/>
<path d="" fill="#000000" transform="translate(0,0)"/>
<path d="" fill="#000000" transform="translate(0,0)"/>
<path d="" fill="#000000" transform="translate(0,0)"/>
<path d="" fill="#000000" transform="translate(0,0)"/>
<path d="" fill="#000000" transform="translate(0,0)"/>
<path d="" fill="#000000" transform="translate(0,0)"/>
<path d="" fill="#000000" transform="translate(0,0)"/>
<path d="" fill="#000000" transform="translate(0,0)"/>
<path d="" fill="#000000" transform="translate(0,0)"/>
</svg>
